PathFileType	4	(X/Y/Z)	C:/Users/opensim2020/Desktop/walking_exp_matlab/subject06_walking12_straigt_03.trc																																																																																																																																														
DataRate	CameraRate	NumFrames	NumMarkers	Units	OrigDataRate	OrigDataStartFrame	OrigNumFrames																																																																																																																																										
100	100	7	48	mm	100	2187	184																																																																																																																																										
Frame#	Time	LFHD			RFHD			LBHD			RBHD			C7			T10			CLAV			STRN			RBAK			LSHO			LUPA			LELB			LFRM			LWRA			LWRB			LFIN			RSHO			RUPA			RELB			RFRM			RWRA			RWRB			RFIN			LASI			RASI			LPSI			RPSI			LTHI			LKNE			LTIB			LANK			LHEE			LTOE			RTHI			RKNE			RTIB			RANK			RHEE			RTOE			*39			*40			*41			*42			*43			*44			*45			*46			*47		
		X1	Y1	Z1	X2	Y2	Z2	X3	Y3	Z3	X4	Y4	Z4	X5	Y5	Z5	X6	Y6	Z6	X7	Y7	Z7	X8	Y8	Z8	X9	Y9	Z9	X10	Y10	Z10	X11	Y11	Z11	X12	Y12	Z12	X13	Y13	Z13	X14	Y14	Z14	X15	Y15	Z15	X16	Y16	Z16	X17	Y17	Z17	X18	Y18	Z18	X19	Y19	Z19	X20	Y20	Z20	X21	Y21	Z21	X22	Y22	Z22	X23	Y23	Z23	X24	Y24	Z24	X25	Y25	Z25	X26	Y26	Z26	X27	Y27	Z27	X28	Y28	Z28	X29	Y29	Z29	X30	Y30	Z30	X31	Y31	Z31	X32	Y32	Z32	X33	Y33	Z33	X34	Y34	Z34	X35	Y35	Z35	X36	Y36	Z36	X37	Y37	Z37	X38	Y38	Z38	X39	Y39	Z39	X40	Y40	Z40	X41	Y41	Z41	X42	Y42	Z42	X43	Y43	Z43	X44	Y44	Z44	X45	Y45	Z45	X46	Y46	Z46	X47	Y47	Z47	X48	Y48	Z48
																																																																																																																																																	
116	1.15	-1084.95007	1666.53125	-360.97134	-954.00012	1653.08838	-348.55695	-1099.92712	1614.3938	-228.54015	-971.38269	1605.27075	-217.34494	-1043.93848	1455.27112	-221.05499	-1040.72571	1127.72192	-178.57396	-1037.16724	1375.76147	-329.6666	-1045.35547	1200.38232	-365.96725	-970.11267	1286.47473	-141.12938	-1200.30627	1410.76843	-284.63412	-1280.39722	1212.52112	-305.08978	-1299.87158	1101.74194	-317.34399	-1325.48669	963.32581	-375.44711	-1281.24402	862.38416	-455.13342	-1326.34619	847.0343	-402.99176	-1327.96411	780.12213	-462.87677	-878.14618	1407.72278	-276.63297	-796.92944	1211.50671	-218.86061	-788.54614	1088.33337	-218.08118	-775.86194	967.42908	-223.51343	-813.40558	824.40472	-268.95474	-771.50629	829.54944	-216.95744	-772.56146	750.74091	-247.22301	-1145.8783	966.41351	-357.31271	-925.9165	969.84912	-350.35355	-1121.45789	995.93671	-198.63153	-953.29382	991.90979	-198.22302	-1198.93567	652.19568	-278.16385	-1173.93518	488.13922	-267.4632	-1152.06152	234.64395	-219.78539	-1097.672	64.18317	-216.09866	-1049.76648	51.94832	-178.75432	-1101.37573	33.78602	-361.55392	-853.79388	649.92273	-374.83817	-867.82263	533.87152	-425.45844	-877.13654	304.36139	-304.6763	-924.49078	143.55318	-214.1772	-973.94287	134.01796	-172.85732	-910.57001	53.38281	-336.46545	-1034.95972	1705.46851	-256.039	NaN	NaN	NaN	NaN	NaN	NaN	NaN	NaN	NaN	NaN	NaN	NaN	NaN	NaN	NaN	NaN	NaN	NaN	NaN	NaN	NaN	NaN	NaN	NaN
117	1.16	-1085.11914	1666.37793	-369.91074	-954.1825	1652.67065	-357.23993	-1100.28406	1614.2334	-237.45239	-971.7262	1604.89417	-226.15549	-1044.42517	1455.0481	-229.90692	-1041.4032	1127.53516	-187.23781	-1037.6593	1375.51538	-338.59061	-1046.04443	1200.11572	-374.87915	-971.00232	1286.21924	-149.99529	-1200.73853	1410.77515	-293.62399	-1281.34399	1213.21191	-316.74902	-1301.15564	1102.49841	-330.9924	-1327.11121	966.03046	-392.9321	-1282.63379	867.60199	-475.70828	-1327.68066	850.57916	-424.11697	-1329.11414	785.44757	-485.96774	-878.63129	1407.3728	-285.43423	-797.59155	1211.70886	-225.91992	-789.3548	1088.44482	-223.69647	-776.77954	967.45184	-228.06995	-815.04688	823.79877	-271.17896	-772.66559	829.64722	-220.12381	-774.07202	750.37433	-248.85747	-1147.04822	965.75671	-365.65952	-926.70691	969.72711	-359.35968	-1121.87134	995.51404	-206.76758	-953.63397	991.80988	-206.99823	-1198.89661	651.63019	-285.38754	-1173.88208	487.57977	-273.76776	-1151.98096	234.51334	-223.08885	-1097.34534	64.30724	-216.68373	-1049.43738	52.47926	-178.65884	-1101.34021	33.69698	-361.78516	-854.77374	650.89435	-386.08536	-869.82782	534.83838	-436.76669	-877.86584	299.81509	-324.29407	-924.25208	134.3409	-242.11888	-973.61469	122.42266	-200.8891	-910.26782	50.85231	-368.9733	-1035.21289	1705.27417	-264.86035	NaN	NaN	NaN	NaN	NaN	NaN	NaN	NaN	NaN	NaN	NaN	NaN	NaN	NaN	NaN	NaN	NaN	NaN	NaN	NaN	NaN	NaN	NaN	NaN
118	1.17	-1085.24841	1666.13794	-378.83688	-954.33679	1652.27966	-366.04437	-1100.61633	1614.01318	-246.42409	-972.10547	1604.54272	-234.97891	-1044.9176	1454.75427	-238.83881	-1042.04297	1127.22607	-196.07774	-1038.10071	1375.19702	-347.49493	-1046.71069	1199.76672	-383.75519	-971.81738	1285.79895	-158.92892	-1201.172	1410.76062	-302.5795	-1282.07849	1213.77661	-328.09943	-1302.02551	1103.28162	-344.15143	-1328.09106	968.49799	-409.63852	-1284.03271	873.02985	-495.85257	-1328.80139	854.26556	-444.76117	-1330.03442	791.09406	-508.71646	-879.10297	1406.90613	-294.29681	-797.98218	1211.61646	-233.29149	-789.99878	1088.48206	-229.78188	-777.63782	967.40631	-232.79123	-816.59924	823.16907	-273.6918	-773.30774	829.76874	-223.10207	-775.43658	749.94489	-250.92888	-1147.5332	964.88116	-373.4769	-927.4082	969.57709	-368.40021	-1122.22437	994.92859	-215.04913	-953.9588	991.54462	-215.80219	-1198.86243	650.95923	-292.52612	-1173.77039	486.98138	-280.28281	-1151.91016	234.49733	-226.23715	-1097.09839	64.47192	-217.26378	-1049.22021	52.73119	-179.27232	-1101.30505	33.61828	-361.99295	-855.91827	651.42267	-396.58664	-871.71497	535.33521	-447.33359	-878.4256	295.06949	-343.7081	-923.84686	125.17539	-270.35962	-973.06836	110.95428	-229.62097	-909.74915	48.75986	-401.63071	-1035.39551	1704.88989	-273.79471	NaN	NaN	NaN	NaN	NaN	NaN	NaN	NaN	NaN	NaN	NaN	NaN	NaN	NaN	NaN	NaN	NaN	NaN	NaN	NaN	NaN	NaN	NaN	NaN
119	1.18	-1085.24072	1665.81421	-387.78622	-954.4295	1651.82019	-374.92105	-1100.89294	1613.66516	-255.34688	-972.37067	1604.04016	-243.77911	-1045.28809	1454.31042	-247.76512	-1042.5387	1126.82678	-204.78796	-1038.51465	1374.8103	-356.49673	-1047.31689	1199.32727	-392.64444	-972.53217	1285.29382	-167.95076	-1201.61414	1410.5957	-311.53772	-1282.94751	1214.12	-338.97256	-1303.16992	1104.01416	-356.95169	-1329.24109	971.07086	-426.11407	-1285.1958	878.68561	-515.65155	-1329.62769	858.0993	-464.96835	-1330.83655	797.0174	-531.04865	-879.47412	1406.34656	-303.17453	-798.38727	1211.6781	-240.59827	-790.56964	1088.40955	-235.98845	-778.4126	967.33167	-237.70271	-818.10834	822.5531	-276.5015	-774.21454	829.77576	-226.98215	-776.72876	749.53046	-253.28418	-1148.46509	964.14856	-381.92322	-928.01318	969.17102	-377.17377	-1122.51782	994.26294	-222.74449	-954.17834	991.14471	-224.51714	-1198.72449	650.25269	-300.00055	-1173.62317	486.3559	-286.76514	-1151.89417	234.60664	-229.35654	-1096.84668	64.6571	-217.87141	-1048.92896	53.20665	-179.42393	-1101.32971	33.72102	-362.28909	-856.82501	651.53998	-406.55017	-873.4859	535.5058	-457.14288	-878.90466	290.24371	-363.21542	-923.32434	116.31687	-299.15021	-972.41901	99.83346	-259.09735	-909.16766	46.96347	-434.23825	-1035.53271	1704.5415	-282.61737	NaN	NaN	NaN	NaN	NaN	NaN	NaN	NaN	NaN	NaN	NaN	NaN	NaN	NaN	NaN	NaN	NaN	NaN	NaN	NaN	NaN	NaN	NaN	NaN
120	1.19	-1085.26489	1665.40161	-396.69235	-954.49298	1651.16455	-383.73685	-1101.06665	1613.21838	-264.37244	-972.63947	1603.4873	-252.61667	-1045.68359	1453.92578	-256.83664	-1042.92627	1126.34961	-213.51236	-1038.92395	1374.28137	-365.51453	-1047.93506	1198.72498	-401.50311	-973.07428	1284.95581	-176.79897	-1202.03052	1410.43103	-320.49237	-1283.78125	1214.42114	-349.47546	-1304.31848	1104.62561	-369.25186	-1330.19348	973.66608	-442.21655	-1286.15808	884.4118	-534.90161	-1330.06372	861.90405	-484.57544	-1331.56555	803.23779	-552.77997	-879.79211	1405.68469	-312.14322	-798.97906	1211.62708	-247.77368	-791.08521	1088.3064	-242.29863	-779.21375	967.20587	-242.44963	-819.43835	821.97076	-279.64044	-774.62451	829.79736	-230.40285	-777.91351	749.18286	-256.08209	-1149.05908	963.38568	-390.28781	-928.53973	968.72449	-386.14944	-1122.5957	993.60785	-231.44278	-954.32233	990.59961	-233.34848	-1198.44666	649.50153	-307.50677	-1173.39282	485.70001	-293.27936	-1151.92725	234.66481	-232.33727	-1096.54773	64.90229	-218.45709	-1048.58545	53.74568	-179.57837	-1101.21301	33.66539	-362.56305	-857.64258	651.16681	-415.90015	-875.11212	535.23303	-466.37659	-879.2514	285.3819	-382.64813	-922.69489	107.94072	-328.33636	-971.84595	89.384	-289.32385	-908.60486	45.52742	-466.94107	-1035.62646	1704.02808	-291.57208	NaN	NaN	NaN	NaN	NaN	NaN	NaN	NaN	NaN	NaN	NaN	NaN	NaN	NaN	NaN	NaN	NaN	NaN	NaN	NaN	NaN	NaN	NaN	NaN
121	1.2	-1085.09253	1665.24902	-405.64291	-954.49316	1650.49536	-392.6409	-1101.23535	1612.65955	-273.35492	-972.77362	1602.73938	-261.48395	-1045.96985	1453.37781	-265.91385	-1043.23486	1125.74414	-222.27505	-1039.22827	1373.68774	-374.51862	-1048.47021	1198.10742	-410.39661	-973.67249	1284.37695	-185.77409	-1202.40015	1410.15186	-329.51059	-1284.23303	1214.46118	-359.89838	-1305.05798	1105.13464	-381.6192	-1330.94592	976.19055	-457.94067	-1286.85254	890.23767	-553.70319	-1330.27124	865.78607	-503.71475	-1332.10571	809.47162	-573.88678	-880.10242	1404.94275	-321.18066	-799.34076	1211.44531	-255.17339	-791.58185	1088.15625	-248.76157	-779.81641	967.03357	-247.77924	-820.65289	821.33099	-283.06686	-775.1712	829.82416	-234.59656	-778.83051	748.75006	-259.39661	-1149.23242	962.50604	-398.35895	-929.07672	968.30627	-395.11456	-1122.74597	992.82269	-239.4025	-954.24561	990.01898	-241.9243	-1198.08069	648.70117	-315.02768	-1172.95691	484.95288	-299.86816	-1151.79456	234.55229	-235.56065	-1096.26514	65.11322	-219.13518	-1048.35864	54.28846	-179.94011	-1101.05115	33.57659	-362.88751	-858.33923	650.40283	-424.62457	-876.73712	534.57074	-474.58951	-879.53265	280.67789	-402.04733	-921.98004	100.13824	-357.91302	-970.21277	79.84576	-318.82983	-908.08014	44.46497	-499.52267	-1035.64587	1703.40784	-300.44925	NaN	NaN	NaN	NaN	NaN	NaN	NaN	NaN	NaN	NaN	NaN	NaN	NaN	NaN	NaN	NaN	NaN	NaN	NaN	NaN	NaN	NaN	NaN	NaN
122	1.21	-1085.0697	1664.59778	-414.64133	-954.45355	1649.70874	-401.5079	-1101.323	1611.96667	-282.38251	-972.88452	1601.92029	-270.48373	-1046.25134	1452.68127	-275.02994	-1043.44397	1125.05371	-231.02693	-1039.53125	1372.9939	-383.5589	-1049.00562	1197.4137	-419.3511	-974.20441	1283.6709	-194.78909	-1202.62769	1409.71045	-338.53055	-1285.08557	1214.63806	-370.2565	-1305.9021	1105.60779	-393.55911	-1331.52539	978.67426	-473.32309	-1287.51221	896.1723	-571.97705	-1330.24341	869.6842	-522.41864	-1332.47791	815.89038	-594.43408	-880.38068	1404.13794	-330.24509	-799.7525	1211.23035	-262.69281	-791.99512	1087.96545	-255.42995	-780.34167	966.7818	-253.30052	-821.60565	820.74316	-286.84879	-775.64001	829.73657	-238.90907	-779.89783	748.45392	-262.4003	-1149.81787	961.68689	-407.17496	-929.35742	967.73273	-404.11035	-1122.80188	991.88739	-247.91624	-954.33722	989.22284	-250.86624	-1197.69727	647.82147	-322.64926	-1172.54187	484.20123	-306.42496	-1151.54065	234.47009	-238.88841	-1095.98022	65.36314	-219.76463	-1048.11987	54.8535	-180.34802	-1101.01843	33.6772	-363.32413	-859.04053	649.20795	-432.63351	-878.15625	533.27197	-482.6402	-879.82379	276.15533	-421.31564	-921.14703	93.06374	-387.64896	-969.81946	70.4692	-350.35043	-907.63245	43.9463	-532.0069	-1035.64941	1702.69641	-309.38254	NaN	NaN	NaN	NaN	NaN	NaN	NaN	NaN	NaN	NaN	NaN	NaN	NaN	NaN	NaN	NaN	NaN	NaN	NaN	NaN	NaN	NaN	NaN	NaN
